<mxfile host="app.diagrams.net" modified="2023-11-06T08:44:04.707Z" agent="Mozilla/5.0 (Windows NT 10.0; Win64; x64) AppleWebKit/537.36 (KHTML, like Gecko) Chrome/119.0.0.0 Safari/537.36" etag="X9DMkqdm5fFbOQxTNbw4" version="22.0.8" type="github">
  <diagram id="C5RBs43oDa-KdzZeNtuy" name="Page-1">
    <mxGraphModel dx="2824" dy="1289" grid="1" gridSize="10" guides="1" tooltips="1" connect="1" arrows="1" fold="1" page="0" pageScale="1" pageWidth="827" pageHeight="1169" math="0" shadow="0">
      <root>
        <mxCell id="WIyWlLk6GJQsqaUBKTNV-0" />
        <mxCell id="WIyWlLk6GJQsqaUBKTNV-1" parent="WIyWlLk6GJQsqaUBKTNV-0" />
        <mxCell id="RCS5-jlwfFJBThqvcFoG-29" style="edgeStyle=orthogonalEdgeStyle;rounded=0;orthogonalLoop=1;jettySize=auto;html=1;entryX=0.5;entryY=0;entryDx=0;entryDy=0;" edge="1" parent="WIyWlLk6GJQsqaUBKTNV-1" source="WIyWlLk6GJQsqaUBKTNV-3" target="RCS5-jlwfFJBThqvcFoG-2">
          <mxGeometry relative="1" as="geometry" />
        </mxCell>
        <mxCell id="RCS5-jlwfFJBThqvcFoG-32" style="edgeStyle=orthogonalEdgeStyle;rounded=0;orthogonalLoop=1;jettySize=auto;html=1;entryX=0.5;entryY=0;entryDx=0;entryDy=0;" edge="1" parent="WIyWlLk6GJQsqaUBKTNV-1" source="WIyWlLk6GJQsqaUBKTNV-3" target="RCS5-jlwfFJBThqvcFoG-0">
          <mxGeometry relative="1" as="geometry" />
        </mxCell>
        <mxCell id="WIyWlLk6GJQsqaUBKTNV-3" value="部门" style="rounded=1;whiteSpace=wrap;html=1;fontSize=12;glass=0;strokeWidth=1;shadow=0;" parent="WIyWlLk6GJQsqaUBKTNV-1" vertex="1">
          <mxGeometry x="560" y="40" width="120" height="40" as="geometry" />
        </mxCell>
        <mxCell id="RCS5-jlwfFJBThqvcFoG-34" style="edgeStyle=orthogonalEdgeStyle;rounded=0;orthogonalLoop=1;jettySize=auto;html=1;entryX=0.5;entryY=0;entryDx=0;entryDy=0;" edge="1" parent="WIyWlLk6GJQsqaUBKTNV-1" source="RCS5-jlwfFJBThqvcFoG-0" target="RCS5-jlwfFJBThqvcFoG-1">
          <mxGeometry relative="1" as="geometry" />
        </mxCell>
        <mxCell id="RCS5-jlwfFJBThqvcFoG-0" value="子部门" style="rounded=1;whiteSpace=wrap;html=1;fontSize=12;glass=0;strokeWidth=1;shadow=0;" vertex="1" parent="WIyWlLk6GJQsqaUBKTNV-1">
          <mxGeometry x="680" y="120" width="120" height="40" as="geometry" />
        </mxCell>
        <mxCell id="RCS5-jlwfFJBThqvcFoG-1" value="子部门" style="rounded=1;whiteSpace=wrap;html=1;fontSize=12;glass=0;strokeWidth=1;shadow=0;" vertex="1" parent="WIyWlLk6GJQsqaUBKTNV-1">
          <mxGeometry x="680" y="200" width="120" height="40" as="geometry" />
        </mxCell>
        <mxCell id="RCS5-jlwfFJBThqvcFoG-30" style="edgeStyle=orthogonalEdgeStyle;rounded=0;orthogonalLoop=1;jettySize=auto;html=1;entryX=0.5;entryY=0;entryDx=0;entryDy=0;" edge="1" parent="WIyWlLk6GJQsqaUBKTNV-1" source="RCS5-jlwfFJBThqvcFoG-2" target="RCS5-jlwfFJBThqvcFoG-3">
          <mxGeometry relative="1" as="geometry" />
        </mxCell>
        <mxCell id="RCS5-jlwfFJBThqvcFoG-2" value="用户" style="rounded=1;whiteSpace=wrap;html=1;fontSize=12;glass=0;strokeWidth=1;shadow=0;" vertex="1" parent="WIyWlLk6GJQsqaUBKTNV-1">
          <mxGeometry x="440" y="120" width="120" height="40" as="geometry" />
        </mxCell>
        <mxCell id="RCS5-jlwfFJBThqvcFoG-31" style="edgeStyle=orthogonalEdgeStyle;rounded=0;orthogonalLoop=1;jettySize=auto;html=1;entryX=0.5;entryY=0;entryDx=0;entryDy=0;" edge="1" parent="WIyWlLk6GJQsqaUBKTNV-1" source="RCS5-jlwfFJBThqvcFoG-3" target="RCS5-jlwfFJBThqvcFoG-4">
          <mxGeometry relative="1" as="geometry" />
        </mxCell>
        <mxCell id="RCS5-jlwfFJBThqvcFoG-35" style="edgeStyle=orthogonalEdgeStyle;rounded=0;orthogonalLoop=1;jettySize=auto;html=1;entryX=0.5;entryY=0;entryDx=0;entryDy=0;" edge="1" parent="WIyWlLk6GJQsqaUBKTNV-1" source="RCS5-jlwfFJBThqvcFoG-3" target="RCS5-jlwfFJBThqvcFoG-5">
          <mxGeometry relative="1" as="geometry" />
        </mxCell>
        <mxCell id="RCS5-jlwfFJBThqvcFoG-3" value="角色" style="rounded=1;whiteSpace=wrap;html=1;fontSize=12;glass=0;strokeWidth=1;shadow=0;" vertex="1" parent="WIyWlLk6GJQsqaUBKTNV-1">
          <mxGeometry x="320" y="200" width="120" height="40" as="geometry" />
        </mxCell>
        <mxCell id="RCS5-jlwfFJBThqvcFoG-26" style="edgeStyle=orthogonalEdgeStyle;rounded=0;orthogonalLoop=1;jettySize=auto;html=1;entryX=0.5;entryY=0;entryDx=0;entryDy=0;" edge="1" parent="WIyWlLk6GJQsqaUBKTNV-1" source="RCS5-jlwfFJBThqvcFoG-4" target="RCS5-jlwfFJBThqvcFoG-7">
          <mxGeometry relative="1" as="geometry" />
        </mxCell>
        <mxCell id="RCS5-jlwfFJBThqvcFoG-27" style="edgeStyle=orthogonalEdgeStyle;rounded=0;orthogonalLoop=1;jettySize=auto;html=1;exitX=0.5;exitY=1;exitDx=0;exitDy=0;entryX=0.5;entryY=0;entryDx=0;entryDy=0;" edge="1" parent="WIyWlLk6GJQsqaUBKTNV-1" source="RCS5-jlwfFJBThqvcFoG-4" target="RCS5-jlwfFJBThqvcFoG-8">
          <mxGeometry relative="1" as="geometry" />
        </mxCell>
        <mxCell id="RCS5-jlwfFJBThqvcFoG-28" style="edgeStyle=orthogonalEdgeStyle;rounded=0;orthogonalLoop=1;jettySize=auto;html=1;entryX=0.5;entryY=0;entryDx=0;entryDy=0;" edge="1" parent="WIyWlLk6GJQsqaUBKTNV-1" source="RCS5-jlwfFJBThqvcFoG-4" target="RCS5-jlwfFJBThqvcFoG-9">
          <mxGeometry relative="1" as="geometry" />
        </mxCell>
        <mxCell id="RCS5-jlwfFJBThqvcFoG-4" value="菜单权限" style="rounded=1;whiteSpace=wrap;html=1;fontSize=12;glass=0;strokeWidth=1;shadow=0;" vertex="1" parent="WIyWlLk6GJQsqaUBKTNV-1">
          <mxGeometry x="120" y="280" width="120" height="40" as="geometry" />
        </mxCell>
        <mxCell id="RCS5-jlwfFJBThqvcFoG-36" style="edgeStyle=orthogonalEdgeStyle;rounded=0;orthogonalLoop=1;jettySize=auto;html=1;entryX=0.5;entryY=0;entryDx=0;entryDy=0;" edge="1" parent="WIyWlLk6GJQsqaUBKTNV-1" source="RCS5-jlwfFJBThqvcFoG-5" target="RCS5-jlwfFJBThqvcFoG-14">
          <mxGeometry relative="1" as="geometry" />
        </mxCell>
        <mxCell id="RCS5-jlwfFJBThqvcFoG-37" style="edgeStyle=orthogonalEdgeStyle;rounded=0;orthogonalLoop=1;jettySize=auto;html=1;entryX=0.5;entryY=0;entryDx=0;entryDy=0;" edge="1" parent="WIyWlLk6GJQsqaUBKTNV-1" source="RCS5-jlwfFJBThqvcFoG-5" target="RCS5-jlwfFJBThqvcFoG-15">
          <mxGeometry relative="1" as="geometry" />
        </mxCell>
        <mxCell id="RCS5-jlwfFJBThqvcFoG-38" style="edgeStyle=orthogonalEdgeStyle;rounded=0;orthogonalLoop=1;jettySize=auto;html=1;entryX=0.5;entryY=0;entryDx=0;entryDy=0;" edge="1" parent="WIyWlLk6GJQsqaUBKTNV-1" source="RCS5-jlwfFJBThqvcFoG-5" target="RCS5-jlwfFJBThqvcFoG-16">
          <mxGeometry relative="1" as="geometry" />
        </mxCell>
        <mxCell id="RCS5-jlwfFJBThqvcFoG-39" style="edgeStyle=orthogonalEdgeStyle;rounded=0;orthogonalLoop=1;jettySize=auto;html=1;" edge="1" parent="WIyWlLk6GJQsqaUBKTNV-1" source="RCS5-jlwfFJBThqvcFoG-5" target="RCS5-jlwfFJBThqvcFoG-17">
          <mxGeometry relative="1" as="geometry" />
        </mxCell>
        <mxCell id="RCS5-jlwfFJBThqvcFoG-40" style="edgeStyle=orthogonalEdgeStyle;rounded=0;orthogonalLoop=1;jettySize=auto;html=1;entryX=0.5;entryY=0;entryDx=0;entryDy=0;" edge="1" parent="WIyWlLk6GJQsqaUBKTNV-1" source="RCS5-jlwfFJBThqvcFoG-5" target="RCS5-jlwfFJBThqvcFoG-20">
          <mxGeometry relative="1" as="geometry" />
        </mxCell>
        <mxCell id="RCS5-jlwfFJBThqvcFoG-5" value="数据权限" style="rounded=1;whiteSpace=wrap;html=1;fontSize=12;glass=0;strokeWidth=1;shadow=0;" vertex="1" parent="WIyWlLk6GJQsqaUBKTNV-1">
          <mxGeometry x="540" y="280" width="120" height="40" as="geometry" />
        </mxCell>
        <mxCell id="RCS5-jlwfFJBThqvcFoG-41" style="edgeStyle=orthogonalEdgeStyle;rounded=0;orthogonalLoop=1;jettySize=auto;html=1;entryX=0.5;entryY=0;entryDx=0;entryDy=0;" edge="1" parent="WIyWlLk6GJQsqaUBKTNV-1" source="RCS5-jlwfFJBThqvcFoG-7" target="RCS5-jlwfFJBThqvcFoG-10">
          <mxGeometry relative="1" as="geometry" />
        </mxCell>
        <mxCell id="RCS5-jlwfFJBThqvcFoG-7" value="目录" style="rounded=1;whiteSpace=wrap;html=1;fontSize=12;glass=0;strokeWidth=1;shadow=0;" vertex="1" parent="WIyWlLk6GJQsqaUBKTNV-1">
          <mxGeometry x="-40" y="360" width="120" height="40" as="geometry" />
        </mxCell>
        <mxCell id="RCS5-jlwfFJBThqvcFoG-42" style="edgeStyle=orthogonalEdgeStyle;rounded=0;orthogonalLoop=1;jettySize=auto;html=1;entryX=0.5;entryY=0;entryDx=0;entryDy=0;" edge="1" parent="WIyWlLk6GJQsqaUBKTNV-1" source="RCS5-jlwfFJBThqvcFoG-8" target="RCS5-jlwfFJBThqvcFoG-12">
          <mxGeometry relative="1" as="geometry" />
        </mxCell>
        <mxCell id="RCS5-jlwfFJBThqvcFoG-8" value="菜单" style="rounded=1;whiteSpace=wrap;html=1;fontSize=12;glass=0;strokeWidth=1;shadow=0;" vertex="1" parent="WIyWlLk6GJQsqaUBKTNV-1">
          <mxGeometry x="120" y="360" width="120" height="40" as="geometry" />
        </mxCell>
        <mxCell id="RCS5-jlwfFJBThqvcFoG-43" style="edgeStyle=orthogonalEdgeStyle;rounded=0;orthogonalLoop=1;jettySize=auto;html=1;entryX=0.5;entryY=0;entryDx=0;entryDy=0;" edge="1" parent="WIyWlLk6GJQsqaUBKTNV-1" source="RCS5-jlwfFJBThqvcFoG-9" target="RCS5-jlwfFJBThqvcFoG-13">
          <mxGeometry relative="1" as="geometry" />
        </mxCell>
        <mxCell id="RCS5-jlwfFJBThqvcFoG-9" value="菜单" style="rounded=1;whiteSpace=wrap;html=1;fontSize=12;glass=0;strokeWidth=1;shadow=0;" vertex="1" parent="WIyWlLk6GJQsqaUBKTNV-1">
          <mxGeometry x="280" y="360" width="120" height="40" as="geometry" />
        </mxCell>
        <mxCell id="RCS5-jlwfFJBThqvcFoG-10" value="&lt;p style=&quot;font-size: 12px;&quot;&gt;权限字符&lt;/p&gt;" style="rounded=1;whiteSpace=wrap;html=1;fontSize=12;glass=0;strokeWidth=1;shadow=0;align=center;horizontal=1;labelBackgroundColor=none;labelBorderColor=none;flipH=0;flipV=0;direction=east;textDirection=ltr;labelPosition=center;verticalLabelPosition=middle;verticalAlign=middle;fontStyle=0;fontFamily=Helvetica;gradientColor=none;spacing=10;" vertex="1" parent="WIyWlLk6GJQsqaUBKTNV-1">
          <mxGeometry y="440" width="40" height="120" as="geometry" />
        </mxCell>
        <mxCell id="RCS5-jlwfFJBThqvcFoG-12" value="&lt;p style=&quot;font-size: 12px;&quot;&gt;权限字符&lt;/p&gt;" style="rounded=1;whiteSpace=wrap;html=1;fontSize=12;glass=0;strokeWidth=1;shadow=0;align=center;horizontal=1;labelBackgroundColor=none;labelBorderColor=none;flipH=0;flipV=0;direction=east;textDirection=ltr;labelPosition=center;verticalLabelPosition=middle;verticalAlign=middle;fontStyle=0;fontFamily=Helvetica;gradientColor=none;spacing=10;" vertex="1" parent="WIyWlLk6GJQsqaUBKTNV-1">
          <mxGeometry x="160" y="440" width="40" height="120" as="geometry" />
        </mxCell>
        <mxCell id="RCS5-jlwfFJBThqvcFoG-13" value="&lt;p style=&quot;font-size: 12px;&quot;&gt;权限字符&lt;/p&gt;" style="rounded=1;whiteSpace=wrap;html=1;fontSize=12;glass=0;strokeWidth=1;shadow=0;align=center;horizontal=1;labelBackgroundColor=none;labelBorderColor=none;flipH=0;flipV=0;direction=east;textDirection=ltr;labelPosition=center;verticalLabelPosition=middle;verticalAlign=middle;fontStyle=0;fontFamily=Helvetica;gradientColor=none;spacing=10;" vertex="1" parent="WIyWlLk6GJQsqaUBKTNV-1">
          <mxGeometry x="320" y="440" width="40" height="120" as="geometry" />
        </mxCell>
        <mxCell id="RCS5-jlwfFJBThqvcFoG-14" value="&lt;p style=&quot;font-size: 12px;&quot;&gt;权限字符&lt;/p&gt;" style="rounded=1;whiteSpace=wrap;html=1;fontSize=12;glass=0;strokeWidth=1;shadow=0;align=center;horizontal=1;labelBackgroundColor=none;labelBorderColor=none;flipH=0;flipV=0;direction=east;textDirection=ltr;labelPosition=center;verticalLabelPosition=middle;verticalAlign=middle;fontStyle=0;fontFamily=Helvetica;gradientColor=none;spacing=10;" vertex="1" parent="WIyWlLk6GJQsqaUBKTNV-1">
          <mxGeometry x="440" y="440" width="40" height="120" as="geometry" />
        </mxCell>
        <mxCell id="RCS5-jlwfFJBThqvcFoG-15" value="&lt;p style=&quot;font-size: 12px;&quot;&gt;权限字符&lt;/p&gt;" style="rounded=1;whiteSpace=wrap;html=1;fontSize=12;glass=0;strokeWidth=1;shadow=0;align=center;horizontal=1;labelBackgroundColor=none;labelBorderColor=none;flipH=0;flipV=0;direction=east;textDirection=ltr;labelPosition=center;verticalLabelPosition=middle;verticalAlign=middle;fontStyle=0;fontFamily=Helvetica;gradientColor=none;spacing=10;" vertex="1" parent="WIyWlLk6GJQsqaUBKTNV-1">
          <mxGeometry x="520" y="440" width="40" height="120" as="geometry" />
        </mxCell>
        <mxCell id="RCS5-jlwfFJBThqvcFoG-16" value="&lt;p style=&quot;font-size: 12px;&quot;&gt;权限字符&lt;/p&gt;" style="rounded=1;whiteSpace=wrap;html=1;fontSize=12;glass=0;strokeWidth=1;shadow=0;align=center;horizontal=1;labelBackgroundColor=none;labelBorderColor=none;flipH=0;flipV=0;direction=east;textDirection=ltr;labelPosition=center;verticalLabelPosition=middle;verticalAlign=middle;fontStyle=0;fontFamily=Helvetica;gradientColor=none;spacing=10;" vertex="1" parent="WIyWlLk6GJQsqaUBKTNV-1">
          <mxGeometry x="600" y="440" width="40" height="120" as="geometry" />
        </mxCell>
        <mxCell id="RCS5-jlwfFJBThqvcFoG-17" value="&lt;p style=&quot;font-size: 12px;&quot;&gt;权限字符&lt;/p&gt;" style="rounded=1;whiteSpace=wrap;html=1;fontSize=12;glass=0;strokeWidth=1;shadow=0;align=center;horizontal=1;labelBackgroundColor=none;labelBorderColor=none;flipH=0;flipV=0;direction=east;textDirection=ltr;labelPosition=center;verticalLabelPosition=middle;verticalAlign=middle;fontStyle=0;fontFamily=Helvetica;gradientColor=none;spacing=10;" vertex="1" parent="WIyWlLk6GJQsqaUBKTNV-1">
          <mxGeometry x="680" y="440" width="40" height="120" as="geometry" />
        </mxCell>
        <mxCell id="RCS5-jlwfFJBThqvcFoG-20" value="&lt;p style=&quot;font-size: 12px;&quot;&gt;权限字符&lt;/p&gt;" style="rounded=1;whiteSpace=wrap;html=1;fontSize=12;glass=0;strokeWidth=1;shadow=0;align=center;horizontal=1;labelBackgroundColor=none;labelBorderColor=none;flipH=0;flipV=0;direction=east;textDirection=ltr;labelPosition=center;verticalLabelPosition=middle;verticalAlign=middle;fontStyle=0;fontFamily=Helvetica;gradientColor=none;spacing=10;" vertex="1" parent="WIyWlLk6GJQsqaUBKTNV-1">
          <mxGeometry x="760" y="440" width="40" height="120" as="geometry" />
        </mxCell>
      </root>
    </mxGraphModel>
  </diagram>
</mxfile>
